<?xml version="1.0" standalone="no"?>
<!DOCTYPE svg PUBLIC "-//W3C//DTD SVG 20010904//EN"
 "http://www.w3.org/TR/2001/REC-SVG-20010904/DTD/svg10.dtd">
<svg version="1.0" xmlns="http://www.w3.org/2000/svg"
 width="137.000000pt" height="56.000000pt" viewBox="0 0 137.000000 56.000000"
 preserveAspectRatio="xMidYMid meet">
<metadata>
Created by potrace 1.10, written by Peter Selinger 2001-2011
</metadata>
<g transform="translate(0.000000,56.000000) scale(0.100000,-0.100000)"
fill="#000000" stroke="none">
<path d="M180 343 c-79 -30 -91 -151 -19 -188 50 -26 119 -17 119 15 0 16 -6
18 -35 13 -73 -12 -114 58 -64 108 17 17 29 20 61 16 36 -5 39 -3 36 16 -2 18
-10 22 -43 24 -22 1 -47 -1 -55 -4z"/>
<path d="M310 245 l0 -105 25 0 c23 0 25 4 25 45 l0 45 45 0 45 0 0 -45 c0
-40 2 -45 23 -45 21 0 22 3 22 105 0 102 -1 105 -22 105 -20 0 -23 -5 -23 -40
l0 -40 -45 0 -45 0 0 40 c0 36 -2 40 -25 40 l-25 0 0 -105z"/>
<path d="M564 262 c-17 -48 -35 -95 -39 -104 -6 -15 -2 -18 19 -18 18 0 29 7
35 23 7 18 16 22 47 21 32 -1 40 -5 42 -23 3 -16 10 -21 32 -21 l29 0 -31 83
c-17 45 -33 92 -36 105 -3 17 -11 22 -36 22 -30 0 -32 -3 -62 -88z m80 -14 c6
-26 4 -28 -23 -28 l-30 0 16 47 c17 49 20 47 37 -19z"/>
<path d="M710 330 c0 -16 7 -20 33 -20 l32 0 -3 -85 -3 -85 25 0 c26 0 26 0
26 85 l0 85 30 0 c23 0 30 4 30 20 0 18 -7 20 -85 20 -78 0 -85 -2 -85 -20z"/>
<path d="M910 245 c0 -102 1 -105 23 -105 21 0 22 3 22 105 0 102 -1 105 -22
105 -22 0 -23 -3 -23 -105z"/>
<path d="M980 330 c0 -16 7 -20 33 -20 l32 0 -3 -85 -3 -85 25 0 c26 0 26 0
26 85 l0 85 30 0 c23 0 30 4 30 20 0 18 -7 20 -85 20 -78 0 -85 -2 -85 -20z"/>
</g>
</svg>
